<svg width="32" height="32" viewBox="0 0 32 32" xmlns="http://www.w3.org/2000/svg"><title>gift</title><path d="M29 12.055c0-.985-.8-1.783-1.786-1.783h-1.253c.787-.775 1.287-1.797 1.287-3.05C27.248 5.678 26.36 4 23.866 4c-3.281 0-6.021 3.488-7.31 5.444C15.264 7.488 12.44 4 9.159 4 6.665 4 5.777 5.677 5.777 7.223c0 1.252.514 2.274 1.315 3.05H5.786C4.8 10.272 4 11.07 4 12.054v5.338h1.802v9.824c0 .985.801 1.783 1.786 1.783h17.849c.985 0 1.786-.798 1.786-1.783v-9.824H29v-5.338zm-5.137-6.272c1.105 0 1.596.463 1.596 1.44 0 1.98-2.212 3.05-4.297 3.05h-3.021c1.27-1.884 3.501-4.49 5.722-4.49zm-14.704 0c2.221 0 4.54 2.606 5.806 4.49h-3.024c-2.082 0-4.38-1.097-4.38-3.078.002-.977.493-1.412 1.598-1.412zm18.055 9.827h-9.821v-3.555h9.821v3.555zM5.786 12.055h9.821v3.555H5.786v-3.555zm1.802 5.338h8.02v9.824h-8.02v-9.824zm17.849 9.824h-8.044v-9.824h8.044v9.824z" fill-rule="nonzero" fill="#AAA"/></svg>