<?xml version="1.0" encoding="UTF-8"?>
<svg width="32px" height="32px" viewBox="0 0 32 32" version="1.1" xmlns="http://www.w3.org/2000/svg" xmlns:xlink="http://www.w3.org/1999/xlink">
    <!-- Generator: Sketch 46.1 (44463) - http://www.bohemiancoding.com/sketch -->
    <title>gift</title>
    <desc>Created with Sketch.</desc>
    <defs></defs>
    <g id="xiaojee_vote" stroke="none" stroke-width="1" fill="none" fill-rule="evenodd">
        <g id="ui" transform="translate(-415.000000, -369.000000)" fill-rule="nonzero" fill="#AAAAAA">
            <path d="M444,381.055246 C444,380.070312 443.199219,379.272321 442.214286,379.272321 L440.961496,379.272321 C441.748326,378.496652 442.247768,377.475446 442.247768,376.222656 C442.247768,374.676897 441.360491,373 438.866071,373 C435.584821,373 432.844866,376.487723 431.555804,378.443638 C430.263951,376.487723 427.44029,373 424.15904,373 C421.664621,373 420.777344,374.676897 420.777344,376.222656 C420.777344,377.475446 421.290737,378.496652 422.091518,379.272321 L420.785714,379.272321 C419.800781,379.272321 419,380.070312 419,381.055246 L419,386.392857 L420.802455,386.392857 L420.802455,396.217076 C420.802455,397.202009 421.603237,398 422.58817,398 L440.436942,398 C441.421875,398 442.222656,397.202009 442.222656,396.217076 L442.222656,386.392857 L444,386.392857 L444,381.055246 L444,381.055246 Z M438.863281,374.782924 C439.968192,374.782924 440.459263,375.246094 440.459263,376.222656 C440.459263,378.203683 438.246652,379.272321 436.162388,379.272321 L433.140625,379.272321 C434.410156,377.388951 436.642299,374.782924 438.863281,374.782924 L438.863281,374.782924 Z M424.15904,374.782924 C426.380022,374.782924 428.698661,377.388951 429.965402,379.272321 L426.940848,379.272321 C424.859375,379.272321 422.560268,378.175781 422.560268,376.194754 C422.563058,375.218192 423.054129,374.782924 424.15904,374.782924 L424.15904,374.782924 Z M442.214286,384.609933 L432.392857,384.609933 L432.392857,381.055246 L442.214286,381.055246 L442.214286,384.609933 L442.214286,384.609933 Z M420.785714,381.055246 L430.607143,381.055246 L430.607143,384.609933 L420.785714,384.609933 L420.785714,381.055246 L420.785714,381.055246 Z M422.58817,386.392857 L430.607143,386.392857 L430.607143,396.217076 L422.58817,396.217076 L422.58817,386.392857 L422.58817,386.392857 Z M440.436942,396.217076 L432.392857,396.217076 L432.392857,386.392857 L440.436942,386.392857 L440.436942,396.217076 L440.436942,396.217076 Z" id="gift"></path>
        </g>
    </g>
</svg>