<?xml version="1.0" encoding="UTF-8"?>
<svg width="32px" height="32px" viewBox="0 0 32 32" version="1.1" xmlns="http://www.w3.org/2000/svg" xmlns:xlink="http://www.w3.org/1999/xlink">
    <!-- Generator: Sketch 46.1 (44463) - http://www.bohemiancoding.com/sketch -->
    <title>player</title>
    <desc>Created with Sketch.</desc>
    <defs></defs>
    <g id="xiaojee_vote" stroke="none" stroke-width="1" fill="none" fill-rule="evenodd">
        <g id="ui" transform="translate(-170.000000, -369.000000)" fill="#AAAAAA">
            <g id="player" transform="translate(172.000000, 370.000000)">
                <g id="zyt-旗子" transform="translate(4.540541, 2.745946)" fill-rule="nonzero">
                    <path d="M19.4561274,12.9460084 L19.4561274,2.20634248 C19.456298,1.89688353 19.2913215,1.60404407 19.0259943,1.44228422 C18.764615,1.28275652 18.421454,1.27072811 18.1494011,1.41145773 C17.2100388,1.89830668 16.2869743,2.3014879 14.4984824,2.3014879 C12.5347547,2.3014879 11.6126455,1.81578428 10.5445868,1.25346528 C9.42414026,0.664754887 8.15998617,0.000194301971 5.75740621,0.000194301971 C3.94847863,0.000194301971 2.84523638,0.376725844 2.08593001,0.704597838 L1.84486444,0.808555001 L1.74740401,0.564735753 C1.61041744,0.221906214 1.2845583,0.000199179029 0.917087064,0.000199179029 C0.423366121,0.000199179029 0.0217688681,0.4018939 0.0217688681,0.895614843 L0.0217688681,23.1419291 C0.0217688681,23.6355672 0.423366121,24.037067 0.917087064,24.037067 C1.41065204,24.037067 1.81234678,23.6357622 1.81234678,23.1419291 L1.81234678,13.5725098 L1.94916278,13.5006951 C2.99794083,12.9510332 3.94439932,12.5304332 5.75723566,12.5304332 C7.71908698,12.5304332 8.64094276,13.0152011 9.70845066,13.5765063 C10.8259243,14.1656212 12.090517,14.8319559 14.4983167,14.8319559 C16.6808516,14.8319559 17.9053772,14.2937961 18.9724318,13.7427988 C19.2707298,13.5881741 19.4561274,13.2828578 19.4561274,12.9460084 Z M17.665608,12.3930323 L17.5135226,12.4605094 C16.8655815,12.747671 16.0005439,13.041144 14.4981851,13.041144 C12.5342624,13.041144 11.6119826,12.5553039 10.5439484,11.9930239 C9.4243547,11.4044451 8.1599813,10.7398894 5.75712841,10.7398894 C4.37121822,10.7398894 3.26389178,10.9460735 2.1668002,11.4084075 L1.81218594,11.5576905 L1.81218594,2.83104554 L1.94900193,2.7593185 C2.99744369,2.21054853 3.94349279,1.79074781 5.75712354,1.79074781 C7.71887739,1.79074781 8.64080628,2.27551567 9.70833854,2.83665035 C10.8282295,3.42637448 12.0929392,4.09226073 14.4981754,4.09226073 C15.5630904,4.09226073 16.4906582,3.96424185 17.3339394,3.70084962 L17.6653058,3.59735549 L17.6653058,12.3930323 L17.665608,12.3930323 L17.665608,12.3930323 Z" id="Shape"></path>
                </g>
                <path d="M1.58819293,25.8864991 C1.58819293,26.3402607 2.7102373,26.8128473 4.31949321,26.9511453 C4.4241039,26.9754368 4.50516494,26.9870651 4.58456507,26.9870651 L5.84843371,26.9870651 C5.9295461,26.9870651 6.01469089,26.9750344 6.13563476,26.9475301 C7.72309564,26.8120221 8.84556399,26.3398171 8.84556399,25.8864991 C8.84556399,25.5442356 8.17198817,25.1650073 7.08161207,24.9548486 L6.95014014,24.9295087 L6.95014014,23.3513514 L7.14440894,23.3905916 C9.10433641,23.7864764 10.4329988,24.7514074 10.4329988,25.8872562 C10.4329988,27.4017028 8.08688912,28.5733606 5.21763663,28.5733606 C2.34645858,28.5733606 0,27.4018927 0,25.8872562 C0,24.7521031 1.3302258,23.7864669 3.29010618,23.3905916 L3.48437498,23.3513514 L3.48437494,24.9295257 L3.35288319,24.9548524 C2.26192239,25.164983 1.58819293,25.5441897 1.58819293,25.8864991 Z" id="Path" fill-rule="nonzero"></path>
                <circle id="Oval" cx="5.18918919" cy="1.94594595" r="1.94594595"></circle>
            </g>
        </g>
    </g>
</svg>