<svg width="32" height="32" viewBox="0 0 32 32" xmlns="http://www.w3.org/2000/svg"><title>player</title><g transform="translate(2 1)" fill="#AAA" fill-rule="evenodd"><path d="M23.997 15.692V4.952a.9.9 0 0 0-.43-.764.91.91 0 0 0-.877-.03c-.94.486-1.862.89-3.651.89-1.964 0-2.886-.486-3.954-1.049-1.12-.588-2.384-1.253-4.787-1.253-1.809 0-2.912.377-3.672.705l-.24.104-.098-.244a.89.89 0 0 0-.83-.565.896.896 0 0 0-.896.896v22.246a.896.896 0 0 0 1.79 0v-9.57l.138-.071c1.048-.55 1.995-.97 3.808-.97 1.962 0 2.883.484 3.951 1.045 1.117.59 2.382 1.256 4.79 1.256 2.182 0 3.407-.538 4.474-1.09a.894.894 0 0 0 .484-.796zm-1.79-.553l-.153.067c-.648.288-1.513.581-3.015.581-1.964 0-2.886-.486-3.955-1.048-1.12-.589-2.383-1.253-4.786-1.253-1.386 0-2.494.206-3.59.668l-.355.15V5.577l.137-.072c1.048-.549 1.994-.968 3.808-.968 1.961 0 2.883.484 3.95 1.046 1.12.59 2.385 1.255 4.79 1.255 1.066 0 1.993-.128 2.836-.391l.332-.104v8.796z" fill-rule="nonzero"/><path d="M1.588 25.886c0 .454 1.122.927 2.731 1.065.105.024.186.036.266.036h1.263c.082 0 .167-.012.288-.04 1.587-.135 2.71-.607 2.71-1.06 0-.343-.674-.722-1.764-.932l-.132-.025v-1.58l.194.04c1.96.395 3.289 1.36 3.289 2.496 0 1.515-2.346 2.686-5.215 2.686C2.346 28.573 0 27.402 0 25.887c0-1.135 1.33-2.1 3.29-2.496l.194-.04v1.579l-.131.025c-1.091.21-1.765.59-1.765.931z" fill-rule="nonzero"/><circle cx="5.189" cy="1.946" r="1.946"/></g></svg>