<svg width="32" height="32" viewBox="0 0 32 32" xmlns="http://www.w3.org/2000/svg"><title>popular_32</title><path d="M14.56 30.583l-1.798-.734c-4.591-1.87-7.51-4.547-8.44-7.739-.426-1.465-.43-3.021-.008-4.622.423-1.608 1.275-3.264 2.537-4.925.708-.954 1.115-1.771 1.283-2.571.185-.878.081-1.79-.316-2.784L7.173 5.6l1.68.642c1.81.689 2.987 1.907 3.62 3.772a6.828 6.828 0 0 0 .477-2.172c.095-1.547-.26-3.23-1.003-4.742L11.41 2l1.275.028c.13.003 3.332.107 6.82 3.302l.022.023a13.612 13.612 0 0 1 2.246 2.894c.49.84.907 1.763 1.25 2.76.129-.383.225-.758.265-1.106l.257-2.162 1.205 1.848c.867 1.33 2.38 4.184 2.763 6.191.612 2.51.647 4.75.098 6.656A8.757 8.757 0 0 1 24.9 26.67c-2.464 2.151-5.84 2.902-7.282 3.221l-2.813.623 2.087-1.902c1.61-1.469 2.25-3.129 1.903-4.93a5.927 5.927 0 0 0-1-2.3l-.027-.031-.022-.037a223.726 223.726 0 0 0-1.99-3.1c-.947.684-2.026 1.595-2.651 2.952-.416.898-.597 1.926-.54 3.057.069 1.368.486 2.93 1.238 4.643l.758 1.717zm4.525-10.073a7.371 7.371 0 0 1 1.268 2.898 6.136 6.136 0 0 1-.795 4.412c1.375-.444 2.986-1.14 4.27-2.26a7.282 7.282 0 0 0 2.256-3.524c.479-1.667.438-3.663-.118-5.934l-.008-.039c-.218-1.159-.917-2.748-1.615-4.066-.161.425-.338.834-.5 1.207l-.225.536-.987 2.38-.528-2.51c-.836-3.973-2.514-6.015-3.708-7.204-.887-.813-2.312-1.9-4.09-2.504a8.912 8.912 0 0 0-.37-.118c.477 1.365.683 2.776.598 4.145-.111 1.83-.758 3.46-1.821 4.595l-1.159 1.232-.22-1.639c-.22-1.641-.706-2.783-1.552-3.567.059.588.027 1.164-.093 1.737-.212 1.013-.702 2.015-1.545 3.148l-.003.005c-1.146 1.509-1.915 2.995-2.289 4.414-.354 1.345-.354 2.643-.001 3.853.68 2.333 2.674 4.375 5.809 5.97a12.956 12.956 0 0 1-.677-3.382c-.068-1.366.157-2.62.67-3.733.934-2.028 2.637-3.203 3.762-3.981l.75-.52.459.653c.64.91 2.258 3.47 2.462 3.796z" fill-rule="nonzero" fill="#AAA"/></svg>