<?xml version="1.0" encoding="UTF-8"?>
<svg width="48px" height="48px" viewBox="0 0 48 48" version="1.1" xmlns="http://www.w3.org/2000/svg" xmlns:xlink="http://www.w3.org/1999/xlink">
    <!-- Generator: Sketch 46.1 (44463) - http://www.bohemiancoding.com/sketch -->
    <title>vote_count</title>
    <desc>Created with Sketch.</desc>
    <defs></defs>
    <g id="xiaojee_vote" stroke="none" stroke-width="1" fill="none" fill-rule="evenodd">
        <g id="ui" transform="translate(-244.000000, -442.000000)" fill-rule="nonzero" fill="#FF9D4E">
            <path d="M266.185594,483.688462 L263.940209,482.772308 C258.207902,480.436923 254.564055,477.095385 253.400979,473.11 C252.870209,471.28 252.865594,469.336923 253.391748,467.338462 C253.920209,465.330769 254.984055,463.263077 256.560209,461.188462 C257.444055,459.997692 257.951748,458.977692 258.161748,457.978462 C258.392517,456.882308 258.263286,455.744615 257.767132,454.503077 L256.961748,452.495385 L259.05944,453.296154 C261.318671,454.156923 262.788671,455.677692 263.580209,458.006154 C263.912517,457.198462 264.115594,456.275385 264.175594,455.294615 C264.293286,453.363077 263.850209,451.260769 262.922517,449.373077 L262.253286,448 L263.845594,448.034615 C264.007132,448.039231 268.006363,448.168462 272.360979,452.158462 L272.388671,452.186154 C273.526363,453.316923 274.417132,454.463846 275.192517,455.8 C275.804055,456.85 276.325594,458.001538 276.752517,459.245385 C276.914055,458.767692 277.034055,458.299231 277.084825,457.865385 L277.405594,455.165385 L278.910209,457.473077 C279.992517,459.134615 281.882517,462.697692 282.360209,465.203846 C283.124055,468.337692 283.167902,471.134615 282.482517,473.513846 C281.894904,475.570309 280.717064,477.40928 279.094825,478.803077 C276.018671,481.489231 271.802517,482.426154 270.002517,482.825385 L266.490209,483.603077 L269.095594,481.228462 C271.105594,479.393846 271.906363,477.321538 271.472517,475.071538 C271.265826,474.03654 270.840151,473.057722 270.224055,472.200769 L270.18944,472.161538 L270.161748,472.115385 C269.34392,470.818586 268.515431,469.528542 267.676363,468.245385 C266.494825,469.099231 265.147132,470.236923 264.367132,471.930769 C263.847902,473.052308 263.621748,474.335385 263.693286,475.747692 C263.778671,477.455385 264.300209,479.405385 265.23944,481.544615 L266.185594,483.688462 L266.185594,483.688462 Z M271.834825,471.111538 C272.044825,471.388462 273.041748,472.777692 273.417902,474.73 C273.793671,476.62559 273.439228,478.593162 272.425594,480.238462 C274.142517,479.684615 276.154825,478.814615 277.756363,477.416154 C279.105599,476.257165 280.085266,474.72789 280.574055,473.017692 C281.171748,470.936154 281.120979,468.443846 280.426363,465.607692 L280.417132,465.559231 C280.144825,464.112308 279.272517,462.127692 278.400209,460.482308 C278.19944,461.013077 277.977902,461.523077 277.777132,461.989231 L277.495594,462.658462 L276.263286,465.630769 L275.603286,462.496923 C274.560209,457.535385 272.464825,454.985385 270.974055,453.501538 C269.866363,452.486154 268.087132,451.129231 265.867132,450.374615 C265.714377,450.32204 265.560494,450.272798 265.405594,450.226923 C266.000979,451.932308 266.257132,453.693077 266.150979,455.403077 C266.012517,457.687692 265.204825,459.723077 263.877902,461.14 L262.430979,462.679231 L262.156363,460.632308 C261.881748,458.583077 261.274825,457.156923 260.217902,456.178462 C260.291748,456.912308 260.252517,457.632308 260.102517,458.347692 C259.837132,459.612308 259.225594,460.863077 258.173286,462.277692 L258.168671,462.284615 C256.737902,464.167692 255.777902,466.023077 255.311748,467.795385 C254.868671,469.475385 254.868671,471.095385 255.30944,472.606923 C256.158671,475.519231 258.648671,478.069231 262.562517,480.060769 C262.094018,478.697012 261.809962,477.276737 261.717902,475.837692 C261.632517,474.132308 261.914055,472.565385 262.553286,471.176154 C263.720979,468.644615 265.846363,467.176923 267.251748,466.205385 L268.188671,465.556923 L268.760979,466.371538 C269.55944,467.509231 271.580979,470.705385 271.834825,471.111538 L271.834825,471.111538 Z" id="popular"></path>
        </g>
    </g>
</svg>