<?xml version="1.0" encoding="UTF-8"?>
<svg width="32px" height="32px" viewBox="0 0 32 32" version="1.1" xmlns="http://www.w3.org/2000/svg" xmlns:xlink="http://www.w3.org/1999/xlink">
    <!-- Generator: Sketch 46.1 (44463) - http://www.bohemiancoding.com/sketch -->
    <title>vote_count_32</title>
    <desc>Created with Sketch.</desc>
    <defs></defs>
    <g id="xiaojee_vote" stroke="none" stroke-width="1" fill="none" fill-rule="evenodd">
        <g id="ui" transform="translate(-238.000000, -368.000000)" fill="#AAAAAA">
            <path d="M252.123251,390.982037 C252.217922,391.006889 252.312559,391.021688 252.417161,391.021688 L256.725667,391.021688 C256.825369,391.021688 256.924939,391.006889 257.019576,390.982037 C260.396735,390.585236 262.125103,388.799747 263.973133,385.93806 C266.12497,382.610159 266.613086,378.300193 265.198522,375.210227 C265.044003,374.877928 264.690379,374.659702 264.2969,374.649782 L263.993027,374.644871 C262.040562,374.644871 260.222422,374.98709 258.573664,375.66652 C257.393128,373.687657 256.098027,372.229556 254.623714,371.247458 C254.578862,371.212718 254.534108,371.178078 254.489255,371.148348 C254.20531,370.979661 253.846621,370.954809 253.537849,371.073925 C253.443178,371.108665 253.353572,371.163147 253.273797,371.227649 C251.799484,372.204704 250.464562,373.677736 249.299021,375.626837 C247.680154,374.977203 245.906867,374.649782 244.004054,374.649782 L243.705246,374.654791 C243.311767,374.659702 242.958109,374.882938 242.803723,375.215237 C241.384127,378.305071 241.877143,382.61507 244.029013,385.943103 C245.871978,388.799747 248.746125,390.585236 252.123251,390.982037 Z M244.417559,376.475053 C246.185781,376.529502 247.814613,376.916382 249.254136,377.630552 C249.498161,377.749668 249.772143,377.774388 250.03113,377.700097 C250.290249,377.625674 250.504384,377.457019 250.62398,377.233751 C251.615108,375.408611 252.725932,374.010035 253.931295,373.067719 C255.136789,374.015045 256.222688,375.403733 257.233843,377.288365 C257.353307,377.5116 257.572472,377.685166 257.831492,377.759556 C258.09048,377.833979 258.374425,377.809127 258.61855,377.685166 C260.092862,376.936224 261.756616,376.529502 263.574623,376.475053 C264.446354,378.98951 263.933279,382.401854 262.249631,385.015586 C261.14887,386.721774 260.222422,388.829642 256.611102,389.196548 C256.591208,389.201591 256.566382,389.201591 256.546322,389.206469 L252.591474,389.206469 C252.571546,389.201591 252.546588,389.201591 252.526694,389.196548 C248.915374,388.829642 246.848343,386.721774 245.742518,385.015586 C244.05887,382.401854 243.545795,378.98951 244.417559,376.475053 Z M264.999283,390.848155 C264.809975,390.843244 259.943508,390.838234 256.606203,394.121574 C256.232651,394.488514 256.257478,395.06389 256.661019,395.40611 L258.070552,395.356539 C260.780251,392.688226 264.894649,392.663374 264.979356,392.663374 L264.98932,392.663374 C265.537184,392.663374 265.980548,392.261695 265.990511,391.760709 C265.99541,391.264765 265.552179,390.853165 264.999283,390.848155 Z M242.992899,390.853165 C242.445034,390.858076 242.001671,391.269808 242.006702,391.77063 C242.011734,392.271583 242.460029,392.673295 243.007894,392.673295 L243.012958,392.673295 C243.0975,392.673295 248.447184,392.698147 251.042285,395.351529 C251.241557,395.554956 251.515539,395.654065 251.789521,395.654065 C252.028614,395.654065 252.262642,395.579675 252.45195,395.421041 C252.865456,395.083732 252.900246,394.508487 252.531725,394.136373 C249.30392,390.848155 243.202101,390.843244 242.992899,390.853165 Z M254.568898,391.160613 C253.936359,391.160613 253.423284,391.671487 253.423284,392.301346 L253.423284,396.8593 C253.423284,397.489126 253.936359,398 254.568898,398 C255.201437,398 255.714512,397.489126 255.714512,396.8593 L255.714512,392.301346 C255.709613,391.666477 255.196538,391.160613 254.568898,391.160613 Z" id="vote_count_32"></path>
        </g>
    </g>
</svg>