<svg width="32" height="32" viewBox="0 0 32 32" xmlns="http://www.w3.org/2000/svg"><title>vote_count_32</title><path d="M14.123 22.982c.095.025.19.04.294.04h4.309c.1 0 .199-.015.294-.04 3.377-.397 5.105-2.182 6.953-5.044C28.125 14.61 28.613 10.3 27.2 7.21c-.155-.332-.509-.55-.902-.56l-.304-.005c-1.952 0-3.77.342-5.42 1.022-1.18-1.98-2.475-3.437-3.95-4.42a2.306 2.306 0 0 0-.134-.099 1.105 1.105 0 0 0-.951-.074.943.943 0 0 0-.264.154c-1.475.977-2.81 2.45-3.975 4.399-1.619-.65-3.392-.977-5.295-.977l-.299.005a1.005 1.005 0 0 0-.901.56c-1.42 3.09-.927 7.4 1.225 10.728 1.843 2.857 4.717 4.642 8.094 5.039zM6.418 8.475c1.768.055 3.397.441 4.836 1.156.244.119.518.143.777.07a.97.97 0 0 0 .593-.467c.991-1.825 2.102-3.224 3.307-4.166 1.206.947 2.292 2.336 3.303 4.22.12.224.338.397.597.472.26.074.543.05.788-.075 1.474-.749 3.138-1.155 4.956-1.21.871 2.515.358 5.927-1.325 8.54-1.101 1.707-2.028 3.815-5.639 4.182-.02.005-.045.005-.065.01h-3.955c-.02-.005-.044-.005-.064-.01-3.612-.367-5.679-2.475-6.784-4.181-1.684-2.614-2.197-6.026-1.325-8.54zm20.581 14.373c-.189-.005-5.055-.01-8.393 3.274a.855.855 0 0 0 .055 1.284l1.41-.05c2.71-2.668 6.824-2.693 6.908-2.693h.01c.548 0 .992-.401 1.002-.902.004-.496-.439-.908-.992-.913zm-22.006.005c-.548.005-.991.417-.986.918.005.5.453.902 1 .902h.006c.084 0 5.434.025 8.03 2.679.199.203.473.302.747.302.239 0 .473-.074.662-.233.413-.337.448-.913.08-1.285-3.228-3.288-9.33-3.293-9.54-3.283zm11.576.308c-.633 0-1.146.51-1.146 1.14v4.558c0 .63.513 1.141 1.146 1.141.632 0 1.146-.51 1.146-1.14V24.3a1.146 1.146 0 0 0-1.146-1.14z" fill="#AAA" fill-rule="evenodd"/></svg>