<svg class="icon" viewBox="0 0 1024 1024" xmlns="http://www.w3.org/2000/svg" width="16" height="16"><defs><style/></defs><path d="M871.813 820.033c0 15.286-12.392 27.678-27.679 27.678s-27.678-12.392-27.678-27.678v-14.984c0-69.394-141.168-167.46-303.302-167.46-128.897 0-305.612 82.659-305.612 164.697v17.746c0 15.286-12.392 27.678-27.679 27.678-15.285 0-27.678-12.392-27.678-27.678v-34.829c0-41.467 61.595-148.142 229.826-187.776C321.257 555.89 281.35 486.095 281.35 406.943c0-127.38 103.265-230.655 230.649-230.655 127.386 0 230.65 103.274 230.65 230.655 0 77.838-38.673 146.525-97.732 188.293 170.041 38.059 226.895 150.176 226.895 189.966l.002 34.83zm-184.52-413.094c0-96.808-78.483-175.293-175.293-175.293S336.707 310.13 336.707 406.939c0 96.821 78.483 175.294 175.293 175.294s175.293-78.473 175.293-175.294z" fill="#aaa"/></svg>