<svg width="48" height="48" viewBox="0 0 48 48" xmlns="http://www.w3.org/2000/svg"><title>vote_count</title><path d="M22.186 41.688l-2.246-.916c-5.732-2.335-9.376-5.677-10.539-9.662-.53-1.83-.535-3.773-.01-5.772.53-2.007 1.593-4.075 3.17-6.15.883-1.19 1.39-2.21 1.6-3.21.232-1.096.102-2.233-.394-3.475l-.805-2.008 2.097.801c2.26.86 3.73 2.382 4.521 4.71.333-.808.536-1.73.596-2.711.117-1.932-.326-4.034-1.253-5.922L18.253 6l1.593.035c.161.004 4.16.133 8.515 4.123l.028.028a16.996 16.996 0 0 1 2.804 3.614 19.255 19.255 0 0 1 1.56 3.445 6.94 6.94 0 0 0 .332-1.38l.32-2.7 1.505 2.308c1.083 1.662 2.973 5.225 3.45 7.73.764 3.135.808 5.932.123 8.31a10.934 10.934 0 0 1-3.388 5.29c-3.076 2.686-7.292 3.623-9.092 4.022l-3.513.778 2.606-2.375c2.01-1.834 2.81-3.906 2.377-6.156a7.4 7.4 0 0 0-1.249-2.871l-.035-.04-.027-.046a279.336 279.336 0 0 0-2.486-3.87c-1.181.854-2.529 1.992-3.309 3.686-.52 1.121-.745 2.404-.674 3.817.086 1.707.607 3.657 1.546 5.797l.947 2.143zm5.649-12.576c.21.276 1.207 1.666 1.583 3.618a7.662 7.662 0 0 1-.992 5.508c1.717-.553 3.729-1.423 5.33-2.822a9.092 9.092 0 0 0 2.818-4.398c.598-2.082.547-4.574-.148-7.41l-.009-.049c-.272-1.447-1.144-3.431-2.017-5.077-.2.531-.422 1.041-.623 1.507l-.281.67-1.233 2.972-.66-3.134c-1.043-4.962-3.138-7.512-4.629-8.995-1.108-1.016-2.887-2.373-5.107-3.127a11.128 11.128 0 0 0-.461-.148c.595 1.705.851 3.466.745 5.176-.138 2.285-.946 4.32-2.273 5.737l-1.447 1.54-.275-2.048c-.274-2.049-.881-3.475-1.938-4.454a7.048 7.048 0 0 1-.115 2.17c-.266 1.264-.877 2.515-1.93 3.93l-.004.007c-1.431 1.883-2.391 3.738-2.857 5.51-.443 1.68-.443 3.3-.003 4.812.85 2.912 3.34 5.462 7.254 7.454a16.177 16.177 0 0 1-.845-4.223c-.085-1.706.196-3.273.835-4.662 1.168-2.531 3.293-4 4.699-4.97l.937-.65.572.816c.798 1.137 2.82 4.333 3.074 4.74z" fill="#FF9D4E"/></svg>