<svg class="icon" viewBox="0 0 1024 1024" xmlns="http://www.w3.org/2000/svg" width="32" height="32"><defs><style/></defs><path d="M810.123 957.841H214.965c-65.733 0-119.029-53.295-119.029-119.029V719.789h59.514v119.024c0 32.87 26.651 59.516 59.514 59.516h595.158c32.869 0 59.514-26.651 59.514-59.516v-654.64c0-32.87-26.651-59.516-59.514-59.516H214.964c-32.87 0-59.514 26.646-59.514 59.516v119.024H95.936V184.172c0-65.733 53.296-119.029 119.029-119.029h595.158c65.732 0 119.029 53.295 119.029 119.029v654.64c-.002 65.734-53.298 119.029-119.029 119.029z" fill="#fff"/><path d="M199.499 325.745c-11.596-11.622-11.596-30.48 0-42.076 11.621-11.627 30.479-11.627 42.106 0l205.311 205.302c6.186 6.191 8.832 14.414 8.426 22.518.406 8.108-2.24 16.332-8.426 22.557l-205.312 205.3c-11.626 11.621-30.485 11.621-42.106 0-11.596-11.626-11.596-30.485 0-42.081l156.025-156.021h-229.83c-16.419 0-29.757-13.304-29.757-29.755 0-16.413 13.339-29.757 29.757-29.757h229.83L199.499 325.745zm407.973 254.306v-45.138h-87.767c-18.417 0-27.586-6.66-27.586-20.06 0-13.362 9.169-20.885 27.586-22.569h60.183L477.073 334.301c-1.685 0-3.37-1.645-5.015-5.015-3.37-5.015-5.015-11.675-5.015-20.062 0-11.675 7.523-19.199 22.568-22.568 11.677 1.685 21.707 7.523 30.093 17.553l115.353 173.028 115.351-173.028c6.66-10.03 16.693-15.868 30.092-17.553 13.362 3.37 20.884 10.893 22.569 22.568 0 5.016-2.509 11.716-7.524 20.062-1.684 1.685-2.509 3.37-2.509 5.015L690.224 492.283h60.183c16.693 1.685 25.901 9.209 27.584 22.569-1.684 13.4-10.891 20.06-27.584 20.06H662.64v45.138h87.767c16.693 1.684 25.901 9.208 27.584 22.568-1.684 13.4-10.891 20.06-27.584 20.06H662.64v100.306c-1.685 16.732-10.893 25.077-27.583 25.077-18.417 0-27.584-8.345-27.584-25.077V622.68h-87.767c-18.417 0-27.586-6.66-27.586-20.06 0-13.36 9.169-20.884 27.586-22.568h87.766v-.001z" fill="#fff"/></svg>