<svg width="48" height="48" viewBox="0 0 48 48" xmlns="http://www.w3.org/2000/svg"><title>vote_count_48</title><path d="M21.637 32.127c.119.031.237.05.367.05h5.379c.124 0 .249-.019.367-.05 4.216-.497 6.373-2.736 8.68-6.324 2.686-4.172 3.296-9.576 1.53-13.45-.193-.416-.635-.69-1.126-.702l-.38-.006c-2.436 0-4.706.429-6.764 1.28-1.474-2.48-3.09-4.308-4.931-5.54a2.88 2.88 0 0 0-.168-.124 1.374 1.374 0 0 0-1.188-.093c-.118.043-.23.112-.33.192-1.84 1.225-3.506 3.072-4.961 5.516-2.021-.815-4.235-1.225-6.61-1.225l-.373.006c-.491.006-.933.286-1.126.703-1.772 3.874-1.156 9.277 1.53 13.45 2.3 3.581 5.889 5.82 10.104 6.317zm-9.619-18.188c2.207.069 4.24.554 6.038 1.449.304.15.646.18.97.087.323-.093.59-.305.74-.585 1.237-2.288 2.624-4.041 4.128-5.223 1.505 1.188 2.86 2.93 4.123 5.292.15.28.423.497.746.59.324.094.678.063.983-.093 1.84-.939 3.917-1.448 6.187-1.517 1.088 3.153.447 7.43-1.654 10.708-1.375 2.139-2.531 4.782-7.04 5.242-.024.006-.055.006-.08.012h-4.937c-.025-.006-.056-.006-.081-.012-4.508-.46-7.089-3.103-8.469-5.242-2.102-3.277-2.742-7.555-1.654-10.708zm25.693 18.02c-.236-.006-6.311-.012-10.477 4.104-.467.46-.436 1.182.068 1.61l1.76-.062c3.382-3.345 8.518-3.376 8.624-3.376h.013c.684 0 1.237-.504 1.25-1.132.006-.622-.548-1.138-1.238-1.144zm-27.472.006c-.683.007-1.237.523-1.23 1.15.006.629.565 1.132 1.25 1.132h.006c.105 0 6.783.032 10.023 3.358.249.255.59.38.933.38.298 0 .59-.094.827-.293.516-.423.56-1.144.1-1.61-4.03-4.123-11.647-4.129-11.909-4.117zm14.451.386c-.79 0-1.43.64-1.43 1.43v5.714a1.43 1.43 0 0 0 2.86 0v-5.714a1.434 1.434 0 0 0-1.43-1.43z" fill="#FF9D4E" fill-rule="evenodd"/></svg>