<svg class="icon" viewBox="0 0 1024 1024" xmlns="http://www.w3.org/2000/svg" width="32" height="32"><defs><style/></defs><path d="M887.745 64h-751.49c-41.25 0-74.809 32.698-74.809 72.89v212.672c0 40.191 33.559 72.89 74.809 72.89h37.181V890.4c0 41.687 34.093 75.601 76 75.601h523.469c41.906 0 76-33.914 76-75.601V422.452h38.84c41.25 0 74.81-32.698 74.81-72.89V136.89c0-40.192-33.56-72.89-74.81-72.89zm-114.84 852H249.436c-14.336 0-26-11.484-26-25.601V248h575.469v642.399c0 14.117-11.664 25.601-26 25.601zm139.65-566.438c0 12.622-11.13 22.89-24.81 22.89h-38.84V248h9.265c11.046 0 20-8.954 20-20s-8.954-20-20-20H164.171c-11.046 0-20 8.954-20 20s8.954 20 20 20h9.265v124.452h-37.181c-13.68 0-24.809-10.268-24.809-22.89V136.89c0-12.622 11.129-22.89 24.809-22.89h751.49c13.68 0 24.81 10.268 24.81 22.89v212.672z" fill="#fff"/><path d="M644.934 434.745c-8.426-7.142-21.046-6.103-28.188 2.322L513.5 558.843 410.255 437.066c-7.144-8.426-19.765-9.464-28.189-2.322-8.425 7.143-9.464 19.764-2.322 28.189L468.823 568h-56.482c-11.046 0-20 8.954-20 20s8.954 20 20 20H492v32h-79.659c-11.046 0-20 8.954-20 20s8.954 20 20 20H492v68c0 11.046 8.954 20 20 20 .507 0 1.003-.039 1.5-.076.497.037.993.076 1.5.076 11.046 0 20-8.954 20-20v-68h75c11.046 0 20-8.954 20-20s-8.954-20-20-20h-75v-32h75c11.046 0 20-8.954 20-20s-8.954-20-20-20h-51.823l89.078-105.066c7.143-8.425 6.104-21.046-2.321-28.189z" fill="#fff"/></svg>